# xmcd CD database file
#
# Track frame offsets:
#	150
#	21760
#	40380
#	54727
#	83755
#	99210
#	117077
#	141800
#	165772
#	187147
#	203990
#	225730
#
# Disc length: 3248 seconds
#
# Revision: 10
# Processed by: cddbd v1.5.2PL0 Copyright (c) Steve Scherf et al.
# Submitted via: CDex 1.51
#
DISCID=970cae0c
DTITLE=John Lee Hooker - Chill Out
DYEAR=1995
DGENRE=Blues
TTITLE0=Chill Out (Things Gonna Change)
TTITLE1=Deep Blue Sea
TTITLE2=Kiddio
TTITLE3=Medley: Serves Me Right To Suffer - Syndicator
TTITLE4=One Bourbon, One Scotch, One Beer
TTITLE5=Tupelo
TTITLE6=Woman On My Mind
TTITLE7=Annie Mae
TTITLE8=Too Young
TTITLE9=Talkin' The Blues
TTITLE10=If You've Never Been In Love
TTITLE11=We'll Meet Again
EXTD=YEAR: 1995
EXTT0=
EXTT1=
EXTT2=
EXTT3=
EXTT4=
EXTT5=
EXTT6=
EXTT7=
EXTT8=
EXTT9=
EXTT10=
EXTT11=
PLAYORDER=
